<svg width="6088" height="7088" viewBox="0 0 6088 7088" fill="none" xmlns="http://www.w3.org/2000/svg">
<path d="M5979.18 44H108.82C73.021 44 44 69.3598 44 100.643V6987.36C44 7018.64 73.021 7044 108.82 7044H5979.18C6014.98 7044 6044 7018.64 6044 6987.36V100.643C6044 69.3598 6014.98 44 5979.18 44Z" fill="#F4F5F6" stroke="#E5E6EE" stroke-width="87.3282"/>
<path d="M5094.56 3834.05L5104.71 3784.45C5109.22 3761.9 5134.02 3747.24 5161.07 3752.88C5185.87 3758.52 5203.91 3779.94 5200.53 3801.36L5189.26 3853.21C5205.04 3855.47 5219.69 3846.45 5223.08 3830.67C5226.46 3813.76 5218.57 3750.63 5163.33 3739.35C5105.84 3728.08 5076.53 3782.19 5073.14 3801.36C5069.76 3816.01 5079.91 3830.67 5094.56 3834.05ZM5117.11 3774.3L5102.45 3844.19C5111.47 3854.34 5123.87 3863.36 5137.4 3865.61C5152.06 3868.99 5166.71 3865.61 5179.11 3859.98L5192.64 3790.08C5183.62 3778.81 5172.35 3770.92 5157.69 3767.54C5143.04 3765.28 5128.38 3767.54 5117.11 3774.3ZM5012.27 3872.38C5015.65 3882.52 5017.91 3893.8 5031.43 3896.05C5042.71 3898.3 5042.71 3898.3 5053.98 3900.56C5056.23 3900.56 5058.49 3900.56 5061.87 3901.69V3996.38H5199.4V3927.61C5203.91 3927.61 5207.29 3928.74 5210.68 3928.74C5211.8 3928.74 5214.06 3929.87 5215.18 3931C5216.31 3941.14 5217.44 3951.29 5219.69 3961.43C5220.82 3971.58 5221.95 3986.23 5224.2 3996.38H5261.4C5261.4 3995.25 5261.4 3989.62 5261.4 3989.62C5259.15 3980.6 5258.02 3971.58 5256.9 3961.43C5254.64 3945.65 5252.39 3928.74 5249 3911.83C5246.75 3897.18 5232.09 3896.05 5220.82 3893.8C5207.29 3891.54 5201.66 3890.41 5188.13 3887.03C5168.97 3883.65 5147.55 3879.14 5127.25 3875.76C5109.22 3872.38 5091.18 3868.99 5072.02 3865.61C5060.74 3864.49 5061.87 3863.36 5049.47 3861.1C5047.22 3861.1 5048.34 3861.1 5047.22 3858.85C5044.96 3854.34 5043.83 3849.83 5042.71 3844.19C5037.07 3828.41 5023.54 3785.57 5023.54 3785.57L4987.47 3795.72C4987.47 3795.72 5005.5 3850.96 5012.27 3872.38ZM5135.15 4050.49H5289.59V4016.67H5135.15V4050.49ZM4959.29 4050.49H5113.73V4016.67H4959.29V4050.49Z" fill="#B1B5C4"/>
<path d="M2627.19 3574.85C2626.04 3570.87 2624.43 3567.35 2622.35 3564.29C2620.28 3561.18 2617.74 3558.56 2614.74 3556.43C2611.79 3554.25 2608.41 3552.58 2604.59 3551.44C2600.82 3550.29 2596.64 3549.72 2592.06 3549.72C2583.49 3549.72 2575.96 3551.85 2569.46 3556.1C2563.02 3560.36 2558 3566.56 2554.4 3574.69C2550.79 3582.77 2548.99 3592.65 2548.99 3604.33C2548.99 3616.01 2550.77 3625.95 2554.31 3634.13C2557.86 3642.32 2562.88 3648.57 2569.38 3652.88C2575.88 3657.14 2583.54 3659.27 2592.39 3659.27C2600.41 3659.27 2607.26 3657.85 2612.94 3655.01C2618.67 3652.12 2623.04 3648.05 2626.04 3642.81C2629.1 3637.57 2630.62 3631.38 2630.62 3624.23L2637.83 3625.29H2594.6V3598.6H2664.77V3619.72C2664.77 3634.46 2661.66 3647.12 2655.43 3657.71C2649.21 3668.25 2640.64 3676.38 2629.72 3682.11C2618.81 3687.79 2606.31 3690.63 2592.22 3690.63C2576.5 3690.63 2562.69 3687.16 2550.79 3680.23C2538.89 3673.24 2529.61 3663.34 2522.95 3650.51C2516.35 3637.63 2513.05 3622.34 2513.05 3604.66C2513.05 3591.07 2515.01 3578.95 2518.94 3568.3C2522.93 3557.6 2528.5 3548.54 2535.65 3541.12C2542.8 3533.7 2551.12 3528.05 2560.62 3524.17C2570.12 3520.3 2580.41 3518.36 2591.49 3518.36C2600.98 3518.36 2609.83 3519.75 2618.01 3522.53C2626.2 3525.26 2633.46 3529.14 2639.79 3534.16C2646.18 3539.18 2651.39 3545.16 2655.43 3552.09C2659.47 3558.97 2662.07 3566.56 2663.21 3574.85H2627.19ZM2691.4 3688.34V3520.65H2804.39V3549.88H2726.85V3589.84H2798.58V3619.07H2726.85V3659.11H2804.72V3688.34H2691.4ZM2972.83 3520.65V3688.34H2942.21L2869.26 3582.8H2868.03V3688.34H2832.58V3520.65H2863.69L2936.07 3626.11H2937.54V3520.65H2972.83ZM3002.12 3688.34V3520.65H3115.12V3549.88H3037.58V3589.84H3109.3V3619.07H3037.58V3659.11H3115.44V3688.34H3002.12ZM3143.3 3688.34V3520.65H3209.46C3222.12 3520.65 3232.93 3522.92 3241.88 3527.45C3250.89 3531.92 3257.74 3538.28 3262.43 3546.52C3267.18 3554.71 3269.56 3564.35 3269.56 3575.43C3269.56 3586.56 3267.16 3596.14 3262.35 3604.17C3257.55 3612.14 3250.59 3618.25 3241.47 3622.51C3232.41 3626.76 3221.44 3628.89 3208.56 3628.89H3164.26V3600.4H3202.83C3209.6 3600.4 3215.22 3599.47 3219.69 3597.62C3224.17 3595.76 3227.5 3592.98 3229.68 3589.26C3231.92 3585.55 3233.04 3580.94 3233.04 3575.43C3233.04 3569.86 3231.92 3565.16 3229.68 3561.34C3227.5 3557.52 3224.14 3554.63 3219.61 3552.66C3215.14 3550.64 3209.49 3549.64 3202.66 3549.64H3178.75V3688.34H3143.3ZM3233.86 3612.03L3275.53 3688.34H3236.4L3195.62 3612.03H3233.86ZM3323.51 3688.34H3285.52L3343.41 3520.65H3389.1L3446.9 3688.34H3408.91L3366.91 3558.97H3365.6L3323.51 3688.34ZM3321.14 3622.42H3410.88V3650.1H3321.14V3622.42ZM3467.09 3688.34V3520.65H3502.54V3659.11H3574.43V3688.34H3467.09ZM2419.59 3967.34H2381.6L2439.49 3799.65H2485.18L2542.98 3967.34H2504.99L2462.99 3837.97H2461.68L2419.59 3967.34ZM2417.22 3901.42H2506.96V3929.1H2417.22V3901.42ZM2622.61 3967.34H2563.17V3799.65H2623.1C2639.97 3799.65 2654.49 3803.01 2666.66 3809.72C2678.83 3816.38 2688.19 3825.96 2694.74 3838.46C2701.35 3850.96 2704.65 3865.92 2704.65 3883.33C2704.65 3900.8 2701.35 3915.81 2694.74 3928.36C2688.19 3940.92 2678.78 3950.55 2666.5 3957.26C2654.27 3963.98 2639.64 3967.34 2622.61 3967.34ZM2598.62 3936.96H2621.14C2631.62 3936.96 2640.43 3935.1 2647.58 3931.39C2654.79 3927.63 2660.19 3921.81 2663.79 3913.95C2667.45 3906.04 2669.28 3895.83 2669.28 3883.33C2669.28 3870.94 2667.45 3860.81 2663.79 3852.95C2660.19 3845.09 2654.82 3839.31 2647.66 3835.59C2640.51 3831.88 2631.7 3830.03 2621.22 3830.03H2598.62V3936.96ZM2730.91 3799.65H2774.64L2820.82 3912.31H2822.78L2868.96 3799.65H2912.68V3967.34H2878.29V3858.19H2876.9L2833.51 3966.52H2810.09L2766.69 3857.78H2765.3V3967.34H2730.91V3799.65ZM2977.35 3799.65V3967.34H2941.89V3799.65H2977.35ZM3097.48 3847.88C3096.83 3841.27 3094.01 3836.14 3089.05 3832.48C3084.08 3828.83 3077.34 3827 3068.82 3827C3063.04 3827 3058.15 3827.82 3054.17 3829.45C3050.18 3831.04 3047.13 3833.25 3045 3836.09C3042.92 3838.92 3041.89 3842.14 3041.89 3845.75C3041.78 3848.75 3042.4 3851.37 3043.77 3853.61C3045.19 3855.85 3047.13 3857.78 3049.58 3859.42C3052.04 3861 3054.88 3862.4 3058.1 3863.6C3061.32 3864.74 3064.76 3865.73 3068.41 3866.54L3083.48 3870.15C3090.79 3871.78 3097.51 3873.97 3103.62 3876.7C3109.74 3879.43 3115.03 3882.78 3119.51 3886.77C3123.98 3890.75 3127.45 3895.45 3129.9 3900.85C3132.42 3906.26 3133.7 3912.45 3133.75 3919.44C3133.7 3929.7 3131.08 3938.6 3125.89 3946.13C3120.76 3953.61 3113.34 3959.42 3103.62 3963.57C3093.96 3967.66 3082.31 3969.71 3068.66 3969.71C3055.12 3969.71 3043.33 3967.64 3033.29 3963.49C3023.3 3959.34 3015.49 3953.2 3009.87 3945.07C3004.3 3936.88 3001.38 3926.75 3001.11 3914.69H3035.42C3035.8 3920.31 3037.41 3925.01 3040.25 3928.77C3043.14 3932.48 3046.99 3935.29 3051.79 3937.2C3056.65 3939.06 3062.14 3939.99 3068.25 3939.99C3074.25 3939.99 3079.47 3939.12 3083.89 3937.37C3088.36 3935.62 3091.83 3933.19 3094.29 3930.08C3096.74 3926.97 3097.97 3923.39 3097.97 3919.36C3097.97 3915.59 3096.85 3912.42 3094.61 3909.86C3092.43 3907.29 3089.21 3905.11 3084.95 3903.31C3080.75 3901.51 3075.59 3899.87 3069.48 3898.39L3051.22 3893.81C3037.08 3890.37 3025.92 3884.99 3017.73 3877.68C3009.54 3870.37 3005.48 3860.51 3005.53 3848.12C3005.48 3837.97 3008.18 3829.1 3013.64 3821.51C3019.15 3813.92 3026.71 3808 3036.32 3803.74C3045.92 3799.49 3056.84 3797.36 3069.07 3797.36C3081.51 3797.36 3092.38 3799.49 3101.66 3803.74C3110.99 3808 3118.25 3813.92 3123.44 3821.51C3128.62 3829.1 3131.3 3837.89 3131.46 3847.88H3097.48ZM3248.57 3847.88C3247.91 3841.27 3245.1 3836.14 3240.13 3832.48C3235.16 3828.83 3228.42 3827 3219.91 3827C3214.12 3827 3209.24 3827.82 3205.25 3829.45C3201.27 3831.04 3198.21 3833.25 3196.08 3836.09C3194.01 3838.92 3192.97 3842.14 3192.97 3845.75C3192.86 3848.75 3193.49 3851.37 3194.85 3853.61C3196.27 3855.85 3198.21 3857.78 3200.67 3859.42C3203.12 3861 3205.96 3862.4 3209.18 3863.6C3212.4 3864.74 3215.84 3865.73 3219.5 3866.54L3234.56 3870.15C3241.88 3871.78 3248.59 3873.97 3254.71 3876.7C3260.82 3879.43 3266.11 3882.78 3270.59 3886.77C3275.07 3890.75 3278.53 3895.45 3280.99 3900.85C3283.5 3906.26 3284.78 3912.45 3284.84 3919.44C3284.78 3929.7 3282.16 3938.6 3276.98 3946.13C3271.85 3953.61 3264.42 3959.42 3254.71 3963.57C3245.04 3967.66 3233.39 3969.71 3219.74 3969.71C3206.21 3969.71 3194.42 3967.64 3184.37 3963.49C3174.38 3959.34 3166.58 3953.2 3160.96 3945.07C3155.39 3936.88 3152.47 3926.75 3152.2 3914.69H3186.5C3186.88 3920.31 3188.49 3925.01 3191.33 3928.77C3194.23 3932.48 3198.07 3935.29 3202.88 3937.2C3207.74 3939.06 3213.22 3939.99 3219.34 3939.99C3225.34 3939.99 3230.55 3939.12 3234.97 3937.37C3239.45 3935.62 3242.92 3933.19 3245.37 3930.08C3247.83 3926.97 3249.06 3923.39 3249.06 3919.36C3249.06 3915.59 3247.94 3912.42 3245.7 3909.86C3243.52 3907.29 3240.3 3905.11 3236.04 3903.31C3231.84 3901.51 3226.68 3899.87 3220.56 3898.39L3202.3 3893.81C3188.17 3890.37 3177 3884.99 3168.82 3877.68C3160.63 3870.37 3156.56 3860.51 3156.62 3848.12C3156.56 3837.97 3159.26 3829.1 3164.72 3821.51C3170.24 3813.92 3177.8 3808 3187.4 3803.74C3197.01 3799.49 3207.93 3797.36 3220.15 3797.36C3232.6 3797.36 3243.46 3799.49 3252.74 3803.74C3262.08 3808 3269.34 3813.92 3274.52 3821.51C3279.71 3829.1 3282.38 3837.89 3282.54 3847.88H3248.57ZM3344.14 3799.65V3967.34H3308.68V3799.65H3344.14ZM3527.4 3883.49C3527.4 3901.78 3523.93 3917.34 3517 3930.16C3510.12 3942.99 3500.74 3952.79 3488.84 3959.56C3476.99 3966.27 3463.67 3969.63 3448.88 3969.63C3433.98 3969.63 3420.6 3966.24 3408.76 3959.48C3396.91 3952.71 3387.55 3942.91 3380.68 3930.08C3373.8 3917.25 3370.36 3901.72 3370.36 3883.49C3370.36 3865.21 3373.8 3849.65 3380.68 3836.82C3387.55 3824 3396.91 3814.22 3408.76 3807.51C3420.6 3800.74 3433.98 3797.36 3448.88 3797.36C3463.67 3797.36 3476.99 3800.74 3488.84 3807.51C3500.74 3814.22 3510.12 3824 3517 3836.82C3523.93 3849.65 3527.4 3865.21 3527.4 3883.49ZM3491.46 3883.49C3491.46 3871.65 3489.68 3861.66 3486.13 3853.53C3482.64 3845.39 3477.7 3839.22 3471.31 3835.02C3464.93 3830.82 3457.45 3828.72 3448.88 3828.72C3440.31 3828.72 3432.83 3830.82 3426.44 3835.02C3420.06 3839.22 3415.09 3845.39 3411.54 3853.53C3408.05 3861.66 3406.3 3871.65 3406.3 3883.49C3406.3 3895.34 3408.05 3905.33 3411.54 3913.46C3415.09 3921.59 3420.06 3927.76 3426.44 3931.96C3432.83 3936.17 3440.31 3938.27 3448.88 3938.27C3457.45 3938.27 3464.93 3936.17 3471.31 3931.96C3477.7 3927.76 3482.64 3921.59 3486.13 3913.46C3489.68 3905.33 3491.46 3895.34 3491.46 3883.49ZM3693.92 3799.65V3967.34H3663.3L3590.34 3861.8H3589.12V3967.34H3553.66V3799.65H3584.78L3657.16 3905.11H3658.63V3799.65H3693.92Z" fill="#B1B5C4"/>
<path d="M2658.18 1056.95C2643.11 1056.95 2629.62 1054.5 2617.68 1049.61C2605.75 1044.72 2596.16 1037.48 2588.92 1027.9C2581.88 1018.31 2578.16 1006.77 2577.77 993.27H2631.18C2631.96 1000.9 2634.6 1006.77 2639.1 1010.88C2643.6 1014.79 2649.47 1016.75 2656.71 1016.75C2664.14 1016.75 2670.01 1015.08 2674.32 1011.76C2678.62 1008.24 2680.77 1003.44 2680.77 997.378C2680.77 992.292 2679.01 988.086 2675.49 984.76C2672.17 981.434 2667.96 978.695 2662.87 976.543C2657.98 974.391 2650.94 971.946 2641.74 969.207C2628.44 965.099 2617.58 960.991 2609.17 956.882C2600.76 952.774 2593.52 946.709 2587.46 938.688C2581.39 930.667 2578.36 920.201 2578.36 907.289C2578.36 888.117 2585.3 873.151 2599.19 862.391C2613.08 851.436 2631.18 845.958 2653.48 845.958C2676.18 845.958 2694.47 851.436 2708.36 862.391C2722.25 873.151 2729.68 888.215 2730.66 907.583H2676.37C2675.98 900.931 2673.54 895.747 2669.04 892.03C2664.54 888.117 2658.76 886.161 2651.72 886.161C2645.66 886.161 2640.77 887.824 2637.05 891.15C2633.33 894.28 2631.47 898.877 2631.47 904.942C2631.47 911.593 2634.6 916.777 2640.86 920.495C2647.12 924.212 2656.91 928.222 2670.21 932.526C2683.51 937.026 2694.27 941.329 2702.49 945.438C2710.9 949.546 2718.14 955.513 2724.2 963.338C2730.27 971.164 2733.3 981.239 2733.3 993.564C2733.3 1005.3 2730.27 1015.96 2724.2 1025.55C2718.34 1035.14 2709.73 1042.77 2698.38 1048.44C2687.03 1054.11 2673.63 1056.95 2658.18 1056.95ZM2912.37 848.893V889.095H2857.79V1054.89H2807.61V889.095H2753.03V848.893H2912.37ZM3065.8 1018.51H2988.91L2976.59 1054.89H2924.06L2998.6 848.893H3056.7L3131.23 1054.89H3078.12L3065.8 1018.51ZM3052.88 979.771L3027.35 904.355L3002.12 979.771H3052.88ZM3290.67 914.039C3286.95 907.191 3281.57 902.007 3274.53 898.486C3267.68 894.769 3259.56 892.91 3250.17 892.91C3233.93 892.91 3220.92 898.29 3211.14 909.05C3201.36 919.614 3196.47 933.798 3196.47 951.6C3196.47 970.577 3201.56 985.445 3211.73 996.205C3222.1 1006.77 3236.28 1012.05 3254.28 1012.05C3266.6 1012.05 3276.97 1008.92 3285.39 1002.66C3293.99 996.4 3300.25 987.401 3304.17 975.663H3240.49V938.688H3349.65V985.347C3345.93 997.867 3339.58 1009.51 3330.58 1020.27C3321.77 1031.03 3310.52 1039.73 3296.83 1046.38C3283.14 1053.04 3267.68 1056.36 3250.47 1056.36C3230.12 1056.36 3211.93 1051.96 3195.88 1043.16C3180.04 1034.16 3167.61 1021.73 3158.62 1005.89C3149.81 990.042 3145.41 971.946 3145.41 951.6C3145.41 931.254 3149.81 913.158 3158.62 897.312C3167.61 881.27 3180.04 868.847 3195.88 860.044C3211.73 851.045 3229.83 846.545 3250.17 846.545C3274.82 846.545 3295.56 852.512 3312.38 864.446C3329.4 876.379 3340.65 892.91 3346.13 914.039H3290.67ZM3427.63 889.095V930.765H3494.83V969.501H3427.63V1014.69H3503.63V1054.89H3377.45V848.893H3503.63V889.095H3427.63Z" fill="#777E91"/>
<path d="M570.76 861.746C568.294 860.231 565.067 861.002 563.552 863.468C562.038 865.935 562.809 869.162 565.275 870.676L570.76 861.746ZM568.018 866.211C565.275 870.676 565.28 870.679 565.289 870.685C565.298 870.69 565.31 870.698 565.327 870.708C565.359 870.728 565.407 870.757 565.469 870.795C565.595 870.872 565.781 870.985 566.028 871.135C566.521 871.434 567.256 871.879 568.231 872.464C570.181 873.633 573.091 875.364 576.944 877.619C584.65 882.129 596.132 888.734 611.264 897.136C641.527 913.94 686.391 937.93 744.852 966.709C861.772 1024.27 1033.09 1100.99 1250.77 1177.7C1686.14 1331.13 2307.04 1484.55 3049.24 1484.55V1474.07C2308.47 1474.07 1688.76 1320.94 1254.26 1167.82C1037.01 1091.26 866.075 1014.7 749.48 957.307C691.184 928.608 646.473 904.699 616.351 887.974C601.291 879.611 589.878 873.045 582.237 868.574C578.417 866.338 575.54 864.626 573.622 863.476C572.663 862.901 571.944 862.466 571.466 862.176C571.227 862.031 571.049 861.922 570.931 861.85C570.872 861.814 570.828 861.788 570.8 861.77C570.786 861.761 570.776 861.755 570.769 861.751C570.762 861.747 570.76 861.746 568.018 866.211ZM3049.24 1484.55C3791.44 1484.55 4412.34 1331.13 4847.71 1177.7C5065.39 1100.99 5236.71 1024.27 5353.63 966.709C5412.09 937.93 5456.95 913.94 5487.22 897.136C5502.35 888.734 5513.83 882.129 5521.54 877.619C5525.39 875.364 5528.3 873.633 5530.25 872.464C5531.22 871.879 5531.96 871.434 5532.45 871.135C5532.7 870.985 5532.89 870.872 5533.01 870.795C5533.07 870.757 5533.12 870.728 5533.15 870.708C5533.17 870.698 5533.18 870.69 5533.19 870.685C5533.2 870.679 5533.21 870.676 5530.46 866.211C5527.72 861.746 5527.72 861.747 5527.71 861.751C5527.71 861.755 5527.69 861.761 5527.68 861.77C5527.65 861.788 5527.61 861.814 5527.55 861.85C5527.43 861.922 5527.25 862.031 5527.01 862.176C5526.54 862.466 5525.82 862.901 5524.86 863.476C5522.94 864.626 5520.06 866.338 5516.24 868.574C5508.6 873.045 5497.19 879.611 5482.13 887.974C5452.01 904.699 5407.3 928.608 5349 957.307C5232.41 1014.7 5061.47 1091.26 4844.22 1167.82C4409.72 1320.94 3790.01 1474.07 3049.24 1474.07V1484.55Z" fill="#B1B5C4"/>
</svg>
