<svg xmlns="http://www.w3.org/2000/svg" width="10240" height="7680" fill="none" viewBox="0 0 10240 7680">
  <g class="Thalia Mara Hall">
    <rect width="10208" height="7648" x="15.999" y="16" fill="#FCFCFD" stroke="#E5E6EE" stroke-width="32" class="BG" rx="112"/>
    <path fill="#F4F5F6" stroke="#B1B5C4" stroke-width="17.421" d="M9924.31 1326.02v5027.2c0 136.58-110.72 247.29-247.29 247.29H2687.3c-69.21 0-135.18-28.9-183.03-79.05-140.83-147.59-449.03-460.79-697.87-644.54-387.96-286.47-1023.662-547.76-1325.58-663.44-98.308-37.67-164.37-131.39-164.37-236.47V2574.29c0-108.18 69.878-203.92 172.33-239.26 303.918-104.83 928.41-337.21 1317.32-599.78 246.77-166.61 558.48-453.25 699.36-586.58 47.09-44.57 109.24-69.94 173.95-69.94h6997.61c136.57 0 247.29 110.72 247.29 247.29Z" class="Map BG"/>
    <g class="Map content">
      <g class="STAGE">
        <path fill="url(#a)" d="M1206.26 5276.72H463.765V2402.48h740.425s136.85 531.66 136.85 1437.12c0 905.46-134.78 1437.12-134.78 1437.12Z" class="Vector 1"/>
        <g class="Stage Text">
          <path fill="#777E91" d="M1056.83 4398.18c0 22-3.57 41.71-10.71 59.13-7.14 17.43-17.71 31.42-31.71 41.99-14 10.28-30.848 15.71-50.558 16.28v-77.98c11.14-1.14 19.71-5 25.708-11.57 5.713-6.57 8.569-15.14 8.569-25.7 0-10.86-2.428-19.43-7.283-25.71-5.142-6.29-12.14-9.43-20.995-9.43-7.427 0-13.568 2.57-18.424 7.71-4.856 4.86-8.855 11-11.997 18.43-3.142 7.14-6.712 17.42-10.711 30.85-5.999 19.42-11.997 35.27-17.996 47.56-5.998 12.28-14.853 22.85-26.564 31.7-11.712 8.86-26.994 13.29-45.846 13.29-27.993 0-49.844-10.15-65.554-30.43-15.996-20.28-23.994-46.7-23.994-79.26 0-33.14 7.998-59.84 23.993-80.12 15.711-20.28 37.705-31.14 65.984-32.57v79.27c-9.712.57-17.282 4.14-22.709 10.71-5.713 6.57-8.569 15-8.569 25.28 0 8.85 2.428 16 7.284 21.42 4.57 5.43 11.283 8.14 20.137 8.14 9.712 0 17.282-4.57 22.709-13.71s11.283-23.42 17.567-42.84c6.57-19.43 12.854-35.14 18.852-47.13 5.999-12.29 14.711-22.86 26.136-31.71 11.426-8.86 26.137-13.28 44.132-13.28 17.138 0 32.706 4.42 46.699 13.28 14 8.57 25.14 21.14 33.42 37.7 8.29 16.57 12.43 36.14 12.43 58.7Zm-303.781-371.14h58.7v79.69h242.081V4180H811.749v79.69h-58.7v-232.65Zm247.651-224.01v112.25l53.13 18v76.69l-300.781-108.83v-84.83l300.781-108.83v77.55l-53.13 18Zm-56.557 18.85-110.114 37.28L944.143 3896v-74.12Zm-95.975-347.19c-9.998 5.43-17.567 13.29-22.709 23.57-5.427 10-8.141 21.85-8.141 35.56 0 23.71 7.856 42.71 23.566 56.99 15.425 14.28 36.134 21.42 62.127 21.42 27.707 0 49.416-7.43 65.126-22.28 15.425-15.14 23.137-35.85 23.137-62.13 0-17.99-4.57-33.13-13.711-45.41-9.14-12.57-22.28-21.71-39.418-27.42v92.97h-53.986v-159.39h68.125c18.281 5.43 35.277 14.71 50.986 27.85 15.71 12.86 28.42 29.28 38.13 49.28 9.72 19.99 14.57 42.56 14.57 67.69 0 29.71-6.43 56.27-19.28 79.7-13.14 23.13-31.28 41.27-54.414 54.41-23.137 12.86-49.558 19.28-79.265 19.28s-56.129-6.42-79.266-19.28c-23.422-13.14-41.56-31.28-54.414-54.41-13.14-23.14-19.709-49.56-19.709-79.27 0-35.99 8.712-66.27 26.136-90.83 17.424-24.85 41.56-41.28 72.41-49.27v80.97Zm-36.42-199.97h60.842v-98.11h56.557v98.11h65.983v-110.97h58.7v184.24H753.049v-184.24h58.699v110.97Z" class="Stage"/>
        </g>
        <path stroke="#B1B5C4" stroke-linecap="round" stroke-width="17.419" d="M1208.4 5276.72s124.16-577.99 124.16-1436.64c0-858.65-124.16-1436.64-124.16-1436.64" class="stage-line"/>
      </g>
      <g class="Loge overhang">
        <path fill="#353945" d="M3281.26 6407.36v-91.23h13.76v79.38h41.34v11.85h-55.1Zm146.5-45.61c0 9.74-1.79 18.11-5.35 25.12-3.56 6.98-8.45 12.35-14.65 16.13-6.18 3.74-13.2 5.61-21.07 5.61-7.9 0-14.96-1.87-21.16-5.61-6.18-3.78-11.05-9.17-14.61-16.17-3.57-7.01-5.35-15.37-5.35-25.08 0-9.74 1.78-18.1 5.35-25.08 3.56-7.01 8.43-12.39 14.61-16.13 6.2-3.77 13.26-5.66 21.16-5.66 7.87 0 14.89 1.89 21.07 5.66 6.2 3.74 11.09 9.12 14.65 16.13 3.56 6.98 5.35 15.34 5.35 25.08Zm-13.63 0c0-7.43-1.21-13.68-3.61-18.76-2.38-5.1-5.65-8.97-9.8-11.58-4.13-2.64-8.81-3.96-14.03-3.96-5.26 0-9.95 1.32-14.08 3.96-4.13 2.61-7.4 6.48-9.8 11.58-2.38 5.08-3.56 11.33-3.56 18.76 0 7.42 1.18 13.69 3.56 18.79 2.4 5.08 5.67 8.94 9.8 11.59 4.13 2.61 8.82 3.92 14.08 3.92 5.22 0 9.9-1.31 14.03-3.92 4.15-2.65 7.42-6.51 9.8-11.59 2.4-5.1 3.61-11.37 3.61-18.79Zm92.53-16.8c-.86-2.7-2.02-5.12-3.48-7.26a21.96 21.96 0 0 0-5.12-5.52c-1.99-1.55-4.26-2.72-6.82-3.52-2.52-.8-5.3-1.2-8.33-1.2-5.13 0-9.77 1.32-13.89 3.96-4.13 2.64-7.4 6.52-9.8 11.63-2.38 5.08-3.57 11.3-3.57 18.66 0 7.4 1.21 13.65 3.61 18.76 2.41 5.1 5.7 8.98 9.89 11.62 4.19 2.65 8.95 3.97 14.3 3.97 4.96 0 9.28-1.01 12.96-3.03 3.71-2.02 6.58-4.87 8.6-8.56 2.05-3.71 3.07-8.07 3.07-13.09l3.57.67h-26.11v-11.36h35.86v10.38c0 7.66-1.63 14.31-4.9 19.95-3.24 5.62-7.72 9.95-13.45 13.01-5.7 3.06-12.24 4.59-19.6 4.59-8.26 0-15.5-1.9-21.74-5.7-6.21-3.8-11.05-9.19-14.52-16.17-3.48-7.01-5.21-15.33-5.21-24.95 0-7.27 1.01-13.81 3.03-19.6 2.02-5.79 4.85-10.7 8.5-14.74 3.69-4.07 8.01-7.18 12.97-9.31 4.99-2.17 10.44-3.26 16.35-3.26 4.93 0 9.51.73 13.76 2.19 4.28 1.45 8.08 3.52 11.4 6.19 3.36 2.67 6.14 5.85 8.33 9.53 2.2 3.65 3.69 7.71 4.46 12.16h-14.12Zm32.21 62.41v-91.23h57.2v11.85h-43.43v27.8h40.45v11.8h-40.45v27.93h43.97v11.85h-57.74Zm188.03-45.61c0 9.74-1.78 18.11-5.34 25.12-3.57 6.98-8.45 12.35-14.66 16.13-6.18 3.74-13.2 5.61-21.07 5.61-7.9 0-14.95-1.87-21.16-5.61-6.18-3.78-11.05-9.17-14.61-16.17-3.56-7.01-5.35-15.37-5.35-25.08 0-9.74 1.79-18.1 5.35-25.08 3.56-7.01 8.43-12.39 14.61-16.13 6.21-3.77 13.26-5.66 21.16-5.66 7.87 0 14.89 1.89 21.07 5.66 6.21 3.74 11.09 9.12 14.66 16.13 3.56 6.98 5.34 15.34 5.34 25.08Zm-13.63 0c0-7.43-1.2-13.68-3.61-18.76-2.37-5.1-5.64-8.97-9.8-11.58-4.13-2.64-8.8-3.96-14.03-3.96-5.26 0-9.95 1.32-14.08 3.96-4.12 2.61-7.39 6.48-9.8 11.58-2.37 5.08-3.56 11.33-3.56 18.76 0 7.42 1.19 13.69 3.56 18.79 2.41 5.08 5.68 8.94 9.8 11.59 4.13 2.61 8.82 3.92 14.08 3.92 5.23 0 9.9-1.31 14.03-3.92 4.16-2.65 7.43-6.51 9.8-11.59 2.41-5.1 3.61-11.37 3.61-18.79Zm34.23-45.62 25.39 74.3h1.03l25.39-74.3h14.88l-32.83 91.23h-15.9l-32.83-91.23h14.87Zm79.86 91.23v-91.23h57.2v11.85h-43.43v27.8h40.44v11.8h-40.44v27.93h43.96v11.85h-57.73Zm75.58 0v-91.23h32.52c7.07 0 12.94 1.22 17.6 3.65 4.69 2.44 8.19 5.81 10.51 10.12 2.32 4.27 3.48 9.22 3.48 14.83 0 5.58-1.18 10.5-3.52 14.74-2.32 4.22-5.82 7.5-10.52 9.85-4.66 2.35-10.52 3.52-17.59 3.52h-24.64v-11.85h23.39c4.46 0 8.08-.64 10.87-1.92 2.82-1.27 4.89-3.13 6.19-5.56 1.31-2.44 1.96-5.36 1.96-8.78 0-3.44-.67-6.43-2-8.95-1.31-2.53-3.37-4.46-6.19-5.79-2.8-1.37-6.46-2.05-11.01-2.05h-17.28v79.42h-13.77Zm45.04-41.16 22.54 41.16h-15.68l-22.09-41.16h15.23Zm35.81 41.16v-91.23h13.77v39.65h45.48v-39.65h13.81v91.23h-13.81v-39.78h-45.48v39.78h-13.77Zm100.81 0h-14.61l32.83-91.23h15.9l32.83 91.23h-14.61l-25.79-74.66h-.71l-25.84 74.66Zm2.45-35.72h47.4v11.58h-47.4v-11.58Zm151.31-55.51v91.23h-12.65l-46.37-66.91h-.85v66.91h-13.76v-91.23h12.74l46.41 67h.85v-67h13.63Zm81.82 28.82c-.86-2.7-2.02-5.12-3.47-7.26-1.43-2.17-3.14-4.01-5.13-5.52-1.99-1.55-4.26-2.72-6.81-3.52-2.53-.8-5.3-1.2-8.33-1.2-5.14 0-9.77 1.32-13.9 3.96-4.13 2.64-7.4 6.52-9.8 11.63-2.38 5.08-3.56 11.3-3.56 18.66 0 7.4 1.2 13.65 3.6 18.76 2.41 5.1 5.71 8.98 9.89 11.62 4.19 2.65 8.96 3.97 14.3 3.97 4.96 0 9.28-1.01 12.96-3.03 3.72-2.02 6.58-4.87 8.6-8.56 2.05-3.71 3.08-8.07 3.08-13.09l3.56.67h-26.1v-11.36h35.85v10.38c0 7.66-1.63 14.31-4.9 19.95-3.23 5.62-7.72 9.95-13.45 13.01-5.7 3.06-12.23 4.59-19.6 4.59-8.25 0-15.5-1.9-21.74-5.7-6.2-3.8-11.04-9.19-14.52-16.17-3.47-7.01-5.21-15.33-5.21-24.95 0-7.27 1.01-13.81 3.03-19.6 2.02-5.79 4.85-10.7 8.51-14.74 3.68-4.07 8-7.18 12.96-9.31 4.99-2.17 10.44-3.26 16.35-3.26 4.93 0 9.52.73 13.76 2.19 4.28 1.45 8.08 3.52 11.41 6.19 3.35 2.67 6.13 5.85 8.33 9.53 2.19 3.65 3.68 7.71 4.45 12.16h-14.12Z" class="Loge Overhang"/>
        <path fill="#353945" d="M2884.56 6221.52v5.12h-1.34l-1.18-.66 2.52-4.46Zm-204.48-115.68 59.12-.52-29.11 51.46-30.01-50.94Zm2253.6 120.8H2884.56v-10.24h2049.12v10.24Zm-2051.64-.66-164.37-92.99 5.04-8.91 164.38 92.99-5.05 8.91Z" class="Arrow 1"/>
      </g>
      <g class="Loge overhang">
        <path fill="#353945" d="M3281.26 1392.96v-91.23h13.76v79.38h41.34v11.85h-55.1Zm146.5-45.61c0 9.74-1.79 18.11-5.35 25.12-3.56 6.98-8.45 12.35-14.65 16.13-6.18 3.74-13.2 5.61-21.07 5.61-7.9 0-14.96-1.87-21.16-5.61-6.18-3.78-11.05-9.17-14.61-16.17-3.57-7.01-5.35-15.37-5.35-25.08 0-9.74 1.78-18.1 5.35-25.08 3.56-7.01 8.43-12.39 14.61-16.13 6.2-3.77 13.26-5.66 21.16-5.66 7.87 0 14.89 1.89 21.07 5.66 6.2 3.74 11.09 9.12 14.65 16.13 3.56 6.98 5.35 15.34 5.35 25.08Zm-13.63 0c0-7.43-1.21-13.68-3.61-18.76-2.38-5.11-5.65-8.97-9.8-11.58-4.13-2.64-8.81-3.96-14.03-3.96-5.26 0-9.95 1.32-14.08 3.96-4.13 2.61-7.4 6.47-9.8 11.58-2.38 5.08-3.56 11.33-3.56 18.76 0 7.42 1.18 13.69 3.56 18.79 2.4 5.08 5.67 8.94 9.8 11.59 4.13 2.61 8.82 3.92 14.08 3.92 5.22 0 9.9-1.31 14.03-3.92 4.15-2.65 7.42-6.51 9.8-11.59 2.4-5.1 3.61-11.37 3.61-18.79Zm92.53-16.8c-.86-2.7-2.02-5.12-3.48-7.26a21.96 21.96 0 0 0-5.12-5.52c-1.99-1.55-4.26-2.72-6.82-3.52-2.52-.8-5.3-1.2-8.33-1.2-5.13 0-9.77 1.32-13.89 3.96-4.13 2.64-7.4 6.52-9.8 11.63-2.38 5.08-3.57 11.3-3.57 18.66 0 7.4 1.21 13.65 3.61 18.76 2.41 5.1 5.7 8.98 9.89 11.62 4.19 2.64 8.95 3.97 14.3 3.97 4.96 0 9.28-1.01 12.96-3.03 3.71-2.02 6.58-4.87 8.6-8.56 2.05-3.71 3.07-8.07 3.07-13.09l3.57.67h-26.11v-11.36h35.86v10.38c0 7.66-1.63 14.31-4.9 19.95-3.24 5.62-7.72 9.95-13.45 13.01-5.7 3.06-12.24 4.59-19.6 4.59-8.26 0-15.5-1.9-21.74-5.7-6.21-3.8-11.05-9.19-14.52-16.17-3.48-7.01-5.21-15.33-5.21-24.95 0-7.27 1.01-13.81 3.03-19.6 2.02-5.79 4.85-10.7 8.5-14.74 3.69-4.07 8.01-7.18 12.97-9.31 4.99-2.17 10.44-3.26 16.35-3.26 4.93 0 9.51.73 13.76 2.19 4.28 1.45 8.08 3.52 11.4 6.19 3.36 2.67 6.14 5.85 8.33 9.53 2.2 3.65 3.69 7.71 4.46 12.16h-14.12Zm32.21 62.41v-91.23h57.2v11.85h-43.43v27.8h40.45v11.8h-40.45v27.93h43.97v11.85h-57.74Zm188.03-45.61c0 9.74-1.78 18.11-5.34 25.12-3.57 6.98-8.45 12.35-14.66 16.13-6.18 3.74-13.2 5.61-21.07 5.61-7.9 0-14.95-1.87-21.16-5.61-6.18-3.78-11.05-9.17-14.61-16.17-3.56-7.01-5.35-15.37-5.35-25.08 0-9.74 1.79-18.1 5.35-25.08 3.56-7.01 8.43-12.39 14.61-16.13 6.21-3.77 13.26-5.66 21.16-5.66 7.87 0 14.89 1.89 21.07 5.66 6.21 3.74 11.09 9.12 14.66 16.13 3.56 6.98 5.34 15.34 5.34 25.08Zm-13.63 0c0-7.43-1.2-13.68-3.61-18.76-2.37-5.11-5.64-8.97-9.8-11.58-4.13-2.64-8.8-3.96-14.03-3.96-5.26 0-9.95 1.32-14.08 3.96-4.12 2.61-7.39 6.47-9.8 11.58-2.37 5.08-3.56 11.33-3.56 18.76 0 7.42 1.19 13.69 3.56 18.79 2.41 5.08 5.68 8.94 9.8 11.59 4.13 2.61 8.82 3.92 14.08 3.92 5.23 0 9.9-1.31 14.03-3.92 4.16-2.65 7.43-6.51 9.8-11.59 2.41-5.1 3.61-11.37 3.61-18.79Zm34.23-45.62 25.39 74.3h1.03l25.39-74.3h14.88l-32.83 91.23h-15.9l-32.83-91.23h14.87Zm79.86 91.23v-91.23h57.2v11.85h-43.43v27.8h40.44v11.8h-40.44v27.93h43.96v11.85h-57.73Zm75.58 0v-91.23h32.52c7.07 0 12.94 1.22 17.6 3.65 4.69 2.44 8.19 5.81 10.51 10.12 2.32 4.27 3.48 9.22 3.48 14.83 0 5.58-1.18 10.5-3.52 14.74-2.32 4.22-5.82 7.5-10.52 9.85-4.66 2.35-10.52 3.52-17.59 3.52h-24.64v-11.85h23.39c4.46 0 8.08-.64 10.87-1.92 2.82-1.27 4.89-3.13 6.19-5.56 1.31-2.44 1.96-5.36 1.96-8.78 0-3.44-.67-6.43-2-8.95-1.31-2.53-3.37-4.46-6.19-5.79-2.8-1.37-6.46-2.05-11.01-2.05h-17.28v79.42h-13.77Zm45.04-41.16 22.54 41.16h-15.68l-22.09-41.16h15.23Zm35.81 41.16v-91.23h13.77v39.65h45.48v-39.65h13.81v91.23h-13.81v-39.78h-45.48v39.78h-13.77Zm100.81 0h-14.61l32.83-91.23h15.9l32.83 91.23h-14.61l-25.79-74.66h-.71l-25.84 74.66Zm2.45-35.72h47.4v11.58h-47.4v-11.58Zm151.31-55.51v91.23h-12.65l-46.37-66.91h-.85v66.91h-13.76v-91.23h12.74l46.41 67h.85v-67h13.63Zm81.82 28.82c-.86-2.7-2.02-5.12-3.47-7.26-1.43-2.17-3.14-4.01-5.13-5.52-1.99-1.55-4.26-2.72-6.81-3.52-2.53-.8-5.3-1.2-8.33-1.2-5.14 0-9.77 1.32-13.9 3.96-4.13 2.64-7.4 6.52-9.8 11.63-2.38 5.08-3.56 11.3-3.56 18.66 0 7.4 1.2 13.65 3.6 18.76 2.41 5.1 5.71 8.98 9.89 11.62 4.19 2.64 8.96 3.97 14.3 3.97 4.96 0 9.28-1.01 12.96-3.03 3.72-2.02 6.58-4.87 8.6-8.56 2.05-3.71 3.08-8.07 3.08-13.09l3.56.67h-26.1v-11.36h35.85v10.38c0 7.66-1.63 14.31-4.9 19.95-3.23 5.62-7.72 9.95-13.45 13.01-5.7 3.06-12.23 4.59-19.6 4.59-8.25 0-15.5-1.9-21.74-5.7-6.2-3.8-11.04-9.19-14.52-16.17-3.47-7.01-5.21-15.33-5.21-24.95 0-7.27 1.01-13.81 3.03-19.6 2.02-5.79 4.85-10.7 8.51-14.74 3.68-4.07 8-7.18 12.96-9.31 4.99-2.17 10.44-3.26 16.35-3.26 4.93 0 9.52.73 13.76 2.19 4.28 1.45 8.08 3.52 11.41 6.19 3.35 2.67 6.13 5.85 8.33 9.53 2.19 3.65 3.68 7.71 4.45 12.16h-14.12Z" class="Loge Overhang"/>
        <path fill="#353945" d="M2884.56 1486.64v-5.12h-1.34l-1.18.66 2.52 4.46Zm-204.48 115.68 59.12.52-29.11-51.46-30.01 50.94Zm2253.6-120.8H2884.56v10.24h2049.12v-10.24Zm-2051.64.66-164.37 93 5.04 8.91 164.38-92.99-5.05-8.92Z" class="Arrow 1"/>
      </g>
    </g>
  </g>
  <defs>
    <linearGradient id="a" x1="463.765" x2="1569.36" y1="3839.6" y2="3839.6" class="a" gradientUnits="userSpaceOnUse">
      <stop stop-color="#fff" stop-opacity="0"/>
      <stop offset="1" stop-color="#2F5A9B" stop-opacity=".2"/>
    </linearGradient>
  </defs>
</svg>
