<svg xmlns="http://www.w3.org/2000/svg" width="6088" height="7088" fill="none" viewBox="0 0 6088 7088">
  <!-- <g class="3. Map - General Admission + 17 General Tables"> -->
    <!-- <path fill="#F4F5F6" stroke="#E5E6EE" stroke-width="87.328" d="M5979.18 44H108.82C73.021 44 44 69.36 44 100.643V6987.36c0 31.28 29.021 56.64 64.82 56.64h5870.36c35.8 0 64.82-25.36 64.82-56.64V100.643C6044 69.36 6014.98 44 5979.18 44Z" class="BG"/>
    <g class="DJ">
      <path fill="#B1B5C4" d="m5094.56 3834.05 10.15-49.6c4.51-22.55 29.31-37.2 56.36-31.57 24.8 5.64 42.84 27.06 39.46 48.48l-11.27 51.85c15.78 2.26 30.43-6.76 33.82-22.54 3.38-16.91-4.51-80.04-59.75-91.32-57.49-11.27-86.8 42.84-90.19 62.01-3.38 14.65 6.77 29.31 21.42 32.69Zm22.55-59.75-14.66 69.89c9.02 10.15 21.42 19.17 34.95 21.42 14.66 3.39 29.31 0 41.71-5.63l13.53-69.9c-9.02-11.27-20.29-19.16-34.95-22.54-14.65-2.26-29.31 0-40.58 6.76Zm-104.84 98.08c3.38 10.14 5.64 21.42 19.16 23.67 11.28 2.26 11.28 2.26 22.55 4.51 2.25 0 4.51 0 7.89 1.13v94.69h137.53v-68.76c4.51 0 7.89 1.12 11.28 1.12 1.12 0 3.38 1.13 4.5 2.26 1.13 10.14 2.26 20.29 4.51 30.43 1.13 10.15 2.26 24.81 4.51 34.95h37.2v-6.76c-2.25-9.02-3.38-18.04-4.5-28.19-2.26-15.78-4.51-32.69-7.9-49.6-2.25-14.65-16.91-15.78-28.18-18.03-13.53-2.26-19.16-3.39-32.69-6.77-19.16-3.38-40.58-7.89-60.88-11.27-18.03-3.38-36.07-6.76-55.23-10.15-11.28-1.12-10.15-2.25-22.55-4.51-2.25 0-1.13 0-2.25-2.25-2.26-4.51-3.39-9.02-4.51-14.66-5.64-15.78-19.17-58.62-19.17-58.62l-36.07 10.15s18.03 55.24 24.8 76.66Zm122.88 178.11h154.44v-33.82h-154.44v33.82Zm-175.86 0h154.44v-33.82h-154.44v33.82Z" class="DJ"/>
    </g>
    <g id="Sec-2" class="YZ"> -->
      <!-- <path fill="#fff" d="m5315.62 1201.58 124.73-52.41c41.44-17.42 87.24 13.01 87.24 57.97v2019.77c0 34.73-28.15 62.88-62.88 62.88h-751.96c-34.73 0-62.89 28.16-62.89 62.89v1034.93c0 34.73-28.15 62.88-62.88 62.88h-337.99c-34.73 0-62.88-28.15-62.88-62.88V2911.19c0-34.73 28.15-62.88 62.88-62.88h839.74c34.73 0 62.88-28.15 62.88-62.88V1315.71c0-24.8 14.57-47.28 37.21-57.41l126.8-56.72Z" class="BG"/> -->
      <rect width="230.57" height="230.57" x="4304" y="4074" fill="#E6E8EC" id="sec-2-seat-1" rx="40"/>
      <rect width="230.57" height="230.57" x="4304" y="3702" fill="#E6E8EC" id="sec-2-seat-2" rx="40"/>
      <rect width="230.57" height="230.57" x="4304" y="3330" fill="#E6E8EC" id="sec-2-seat-3" rx="40"/>
      <rect width="230.57" height="230.57" x="4304" y="2958" fill="#E6E8EC" id="sec-2-seat-4" rx="40"/>
      <rect width="230.57" height="230.57" x="4771" y="2958" fill="#E6E8EC" id="sec-2-seat-5" rx="40"/>
      <rect width="230.57" height="230.57" x="5227" y="2754" fill="#E6E8EC" id="sec-2-seat-6" rx="40"/>
      <rect width="230.57" height="230.57" x="5227" y="2324" fill="#E6E8EC" id="sec-2-seat-7" rx="40"/>
      <rect width="230.57" height="230.57" x="5227" y="1894" fill="#E6E8EC" id="sec-2-seat-8" rx="40"/>
      <rect width="230.57" height="230.57" x="5227" y="1470" fill="#E6E8EC" id="sec-2-seat-9" rx="40"/>
      <!-- <path fill="#E6DFF8" stroke="#6531F5" stroke-width="24" d="m5193.72 1269.26 126.67-56.66 124.61-52.37c33.53-14.09 70.59 10.53 70.59 46.91v2019.77c0 28.1-22.78 50.88-50.88 50.88h-751.96c-41.36 0-74.89 33.53-74.89 74.89v1034.93c0 28.1-22.78 50.88-50.88 50.88h-337.99c-28.1 0-50.88-22.78-50.88-50.88V2911.19c0-28.1 22.78-50.88 50.88-50.88h839.74c41.36 0 74.88-33.53 74.88-74.88V1315.71c0-20.07 11.79-38.26 30.11-46.45Z" class="BG-overlay"/> -->
      <!-- <g id="identifier">
        <path fill="#6531F5" fill-opacity=".45" d="M4460.73 2961.55c-.72-2.54-1.75-4.78-3.07-6.72a18.768 18.768 0 0 0-4.85-5c-1.87-1.39-4.02-2.45-6.46-3.18-2.39-.73-5.05-1.1-7.97-1.1-5.45 0-10.25 1.36-14.38 4.07-4.1 2.71-7.29 6.65-9.59 11.83-2.29 5.14-3.43 11.42-3.43 18.86 0 7.43 1.12 13.75 3.38 18.96 2.26 5.21 5.46 9.19 9.59 11.93 4.13 2.71 9.01 4.07 14.64 4.07 5.11 0 9.47-.9 13.08-2.71 3.65-1.84 6.42-4.43 8.34-7.76 1.94-3.34 2.91-7.28 2.91-11.83l4.59.68H4440v-16.99h44.65v13.44c0 9.38-1.98 17.44-5.94 24.18-3.96 6.7-9.41 11.88-16.36 15.53-6.95 3.61-14.9 5.41-23.86 5.41-10.01 0-18.8-2.2-26.37-6.61-7.57-4.45-13.48-10.75-17.71-18.92-4.21-8.19-6.31-17.92-6.31-29.17 0-8.65 1.25-16.37 3.75-23.14 2.54-6.81 6.08-12.57 10.63-17.3 4.55-4.72 9.85-8.32 15.89-10.78 6.05-2.47 12.6-3.7 19.65-3.7 6.04 0 11.67.88 16.88 2.65 5.21 1.74 9.83 4.21 13.86 7.4 4.06 3.2 7.38 7 9.95 11.41 2.57 4.38 4.22 9.21 4.95 14.49h-22.93Zm40.87 72.22v-106.71h71.9v18.6h-49.34v25.42h45.64v18.61h-45.64v25.47h49.55v18.61h-72.11Zm179.09-106.71v106.71h-19.49l-46.42-67.17h-.78v67.17h-22.56v-106.71h19.8l46.06 67.11h.93v-67.11h22.46Zm18.64 106.71v-106.71h71.91v18.6h-49.35v25.42h45.65v18.61h-45.65v25.47h49.55v18.61h-72.11Zm89.84 0v-106.71h42.1c8.06 0 14.94 1.44 20.64 4.32 5.73 2.85 10.09 6.9 13.07 12.14 3.03 5.21 4.54 11.34 4.54 18.39 0 7.09-1.53 13.19-4.59 18.29-3.06 5.07-7.48 8.96-13.29 11.67-5.76 2.71-12.74 4.07-20.94 4.07h-28.19v-18.13h24.54c4.31 0 7.89-.59 10.74-1.78 2.84-1.18 4.96-2.95 6.35-5.31 1.43-2.36 2.14-5.3 2.14-8.81 0-3.54-.71-6.53-2.14-8.96-1.39-2.43-3.52-4.27-6.41-5.52-2.85-1.29-6.44-1.93-10.78-1.93h-15.22v88.27h-22.56Zm57.63-48.57 26.52 48.57h-24.91l-25.94-48.57h24.33Zm57.05 48.57h-24.17l36.83-106.71h29.08l36.78 106.71h-24.17l-26.73-82.33h-.84l-26.78 82.33Zm-1.51-41.95h57.11v17.61h-57.11v-17.61Zm92.88 41.95v-106.71h22.56v88.1h45.75v18.61h-68.31Zm-497.47 90.05v-18.6h87.64v18.6h-32.67v88.11h-22.3v-88.11h-32.67Zm107.42 88.11H4581l36.83-106.71h29.08l36.78 106.71h-24.17l-26.73-82.32h-.84l-26.78 82.32Zm-1.51-41.94h57.11v17.61h-57.11v-17.61Zm92.88 41.94v-106.71h42.72c7.85 0 14.4 1.17 19.65 3.49 5.24 2.33 9.18 5.56 11.82 9.69 2.64 4.1 3.96 8.83 3.96 14.18 0 4.17-.83 7.83-2.5 10.99-1.66 3.13-3.96 5.7-6.87 7.71-2.89 1.98-6.19 3.39-9.9 4.22v1.04c4.06.18 7.86 1.32 11.41 3.44 3.57 2.12 6.47 5.09 8.7 8.91 2.22 3.79 3.33 8.31 3.33 13.55 0 5.66-1.4 10.72-4.22 15.16-2.78 4.41-6.89 7.91-12.35 10.48-5.45 2.57-12.17 3.85-20.16 3.85h-45.59Zm22.56-18.44h18.39c6.29 0 10.87-1.2 13.76-3.6 2.88-2.43 4.32-5.66 4.32-9.69 0-2.95-.71-5.56-2.13-7.82-1.43-2.25-3.46-4.02-6.1-5.31-2.61-1.29-5.71-1.93-9.33-1.93h-18.91v28.35Zm0-43.61h16.72c3.1 0 5.84-.54 8.24-1.62 2.43-1.11 4.34-2.67 5.73-4.69 1.42-2.01 2.13-4.43 2.13-7.24 0-3.86-1.37-6.97-4.11-9.33-2.71-2.36-6.57-3.54-11.57-3.54h-17.14v26.42Zm74.44 62.05v-106.71h22.56v88.11h45.75v18.6h-68.31Zm83.25 0v-106.71h71.91v18.6h-49.35v25.43H4945v18.6h-45.65v25.48h49.55v18.6h-72.11Z" class="General table"/>
      </g>
    </g> -->
    <g id="Sec-3" class="YZ">
      <!-- <rect width="649.782" height="1792.14" x="568.018" y="1877.56" fill="#fff" class="BG" rx="62.882"/> -->
      <rect width="230.57" height="230.57" x="778" y="2024" fill="#E6E8EC" id="sec-3-seat-1" rx="40"/>
      <rect width="230.57" height="230.57" x="778" y="2449" fill="#E6E8EC" id="sec-3-seat-2" rx="40"/>
      <rect width="230.57" height="230.57" x="778" y="2873" fill="#E6E8EC" id="sec-3-seat-3" rx="40"/>
      <rect width="230.57" height="230.57" x="778" y="3298" fill="#E6E8EC" id="sec-3-seat-4" rx="40"/>
      <!-- <path fill="#E6DFF8" stroke="#6531F5" stroke-width="24" d="M568 3607.12V1950.88c0-34.73 28.152-62.88 62.88-62.88h524.24c34.73 0 62.88 28.15 62.88 62.88v1656.24c0 34.73-28.15 62.88-62.88 62.88H630.88c-34.728 0-62.88-28.15-62.88-62.88Z" class="BG-overlay"/> -->
      <!-- <g id="identifier">
        <path fill="#6531F5" fill-opacity=".45" d="M787.239 3030.98c-2.536.73-4.776 1.75-6.722 3.07a19.02 19.02 0 0 0-5.002 4.85c-1.389 1.87-2.448 4.03-3.178 6.46-.729 2.39-1.094 5.05-1.094 7.97 0 5.45 1.355 10.25 4.064 14.38 2.709 4.1 6.652 7.29 11.828 9.59 5.141 2.29 11.428 3.44 18.861 3.44 7.434 0 13.756-1.13 18.966-3.39 5.211-2.26 9.188-5.45 11.932-9.59 2.709-4.13 4.064-9.01 4.064-14.64 0-5.11-.903-9.46-2.709-13.08-1.841-3.64-4.429-6.42-7.764-8.33-3.334-1.95-7.277-2.92-11.827-2.92l.677-4.59v27.51h-16.986v-44.65h13.443c9.379 0 17.437 1.98 24.176 5.94 6.704 3.96 11.88 9.41 15.527 16.36 3.613 6.95 5.419 14.9 5.419 23.86 0 10.01-2.206 18.8-6.617 26.37-4.446 7.57-10.751 13.48-18.914 17.71-8.198 4.21-17.924 6.31-29.178 6.31-8.65 0-16.361-1.25-23.134-3.75-6.809-2.54-12.575-6.08-17.299-10.63-4.724-4.55-8.319-9.85-10.786-15.89-2.466-6.05-3.699-12.59-3.699-19.65 0-6.04.886-11.67 2.657-16.88 1.737-5.21 4.203-9.83 7.399-13.86 3.196-4.06 6.999-7.38 11.411-9.95 4.377-2.57 9.205-4.22 14.485-4.95v22.93Zm72.216-40.87H752.746v-71.9h18.601v49.34h25.427v-45.64h18.601v45.64h25.479V2918h18.601v72.11Zm-106.709-179.09h106.709v19.49l-67.162 46.42v.78h67.162v22.56H752.746v-19.8l67.11-46.06v-.93h-67.11v-22.46Zm106.709-18.64H752.746v-71.9h18.601v49.34h25.427v-45.65h18.601v45.65h25.479v-49.55h18.601v72.11Zm0-89.84H752.746v-42.1c0-8.06 1.442-14.94 4.325-20.63 2.848-5.74 6.895-10.1 12.14-13.08 5.21-3.02 11.341-4.54 18.393-4.54 7.086 0 13.182 1.53 18.288 4.59 5.072 3.06 8.962 7.49 11.671 13.29 2.71 5.76 4.065 12.74 4.065 20.94v28.19h-18.133v-24.54c0-4.31-.59-7.89-1.771-10.73-1.181-2.85-2.953-4.97-5.315-6.36-2.362-1.43-5.297-2.14-8.805-2.14-3.543 0-6.531.71-8.962 2.14-2.432 1.39-4.273 3.52-5.523 6.41-1.286 2.85-1.928 6.44-1.928 10.78v15.22h88.264v22.56Zm-48.561-57.63 48.561-26.52v24.91l-48.561 25.94v-24.33Zm48.561-57.05v24.17l-106.709-36.83v-29.08l106.709-36.78v24.17l-82.324 26.73v.84l82.324 26.78Zm-41.944 1.51v-57.11h17.611v57.11h-17.611Zm41.944-92.88H752.746v-22.56h88.108v-45.74h18.601v68.3Zm90.058 497.47h-18.601v-87.64h18.601v32.67h88.107v22.3h-88.107v32.67Zm88.107-107.42v24.17l-106.708-36.83v-29.08l106.708-36.78v24.17l-82.323 26.73v.84l82.323 26.78Zm-41.943 1.51v-57.11h17.613v57.11h-17.613Zm41.943-92.88H930.912v-42.72c0-7.85 1.164-14.4 3.491-19.65 2.327-5.24 5.558-9.18 9.691-11.82 4.099-2.64 8.823-3.96 14.173-3.96 4.168 0 7.833.83 10.994 2.5a21.6 21.6 0 0 1 7.711 6.88c1.98 2.88 3.387 6.18 4.22 9.9h1.042c.174-4.07 1.32-7.87 3.439-11.42 2.119-3.57 5.089-6.47 8.91-8.7 3.786-2.22 8.297-3.33 13.547-3.33 5.66 0 10.72 1.41 15.16 4.22 4.41 2.78 7.9 6.89 10.48 12.35 2.57 5.45 3.85 12.17 3.85 20.16v45.59Zm-18.44-22.56v-18.39c0-6.29-1.2-10.87-3.6-13.76-2.43-2.88-5.66-4.32-9.69-4.32-2.95 0-5.56.71-7.816 2.14-2.258 1.42-4.029 3.45-5.315 6.09-1.285 2.61-1.927 5.72-1.927 9.33v18.91h28.348Zm-43.615 0v-16.72c0-3.09-.538-5.84-1.615-8.24-1.112-2.43-2.675-4.34-4.689-5.73-2.015-1.42-4.429-2.13-7.243-2.13-3.856 0-6.965 1.37-9.327 4.11-2.362 2.71-3.543 6.57-3.543 11.57v17.14h26.417Zm62.055-74.44H930.912v-22.56h88.108v-45.75h18.6v68.31Zm0-83.25H930.912v-71.9h18.601v49.34h25.427v-45.64h18.601v45.64h25.479v-49.55h18.6v72.11Z" class="General table"/>
      </g> -->
    </g>
    <g id="Sec-1" class="YZ">
      <!-- <rect width="979.913" height="1053.28" x="557.535" y="4198.96" fill="#fff" class="BG" rx="62.882"/> -->
      <rect width="230.57" height="230.57" x="715" y="4394" fill="#E6E8EC" id="sec-1-seat-1" rx="40"/>
      <rect width="230.57" height="230.57" x="1155" y="4394" fill="#E6E8EC" id="sec-1-seat-2" rx="40"/>
      <rect width="230.57" height="230.57" x="715" y="4834" fill="#E6E8EC" id="sec-1-seat-3" rx="40"/>
      <rect width="230.57" height="230.57" x="1155" y="4834" fill="#E6E8EC" id="sec-1-seat-4" rx="40"/>
      <!-- <path fill="#E6DFF8" stroke="#6531F5" stroke-width="24" d="M558 5189.12v-917.24c0-34.73 28.152-62.88 62.88-62.88h853.24c34.73 0 62.88 28.15 62.88 62.88v917.24c0 34.73-28.15 62.88-62.88 62.88H620.88c-34.728 0-62.88-28.15-62.88-62.88Z" class="BG-overlay"/> -->
      <!-- <g id="identifier">
        <path fill="#6531F5" fill-opacity=".45" d="M787.375 4622.68c-.729-2.53-1.754-4.77-3.074-6.72a18.892 18.892 0 0 0-4.846-5c-1.875-1.39-4.029-2.45-6.461-3.18-2.396-.73-5.054-1.09-7.971-1.09-5.454 0-10.248 1.35-14.381 4.06-4.099 2.71-7.295 6.65-9.587 11.83-2.293 5.14-3.439 11.43-3.439 18.86s1.129 13.76 3.387 18.97c2.257 5.21 5.453 9.18 9.587 11.93 4.133 2.71 9.014 4.06 14.641 4.06 5.106 0 9.466-.9 13.078-2.71 3.647-1.84 6.426-4.43 8.337-7.76 1.945-3.34 2.918-7.28 2.918-11.83l4.585.68h-27.511v-16.99h44.653v13.45c0 9.37-1.98 17.43-5.94 24.17-3.96 6.71-9.413 11.88-16.361 15.53-6.947 3.61-14.901 5.42-23.863 5.42-10.004 0-18.792-2.21-26.365-6.62-7.572-4.45-13.477-10.75-17.715-18.91-4.203-8.2-6.305-17.93-6.305-29.18 0-8.65 1.251-16.36 3.752-23.14 2.535-6.8 6.078-12.57 10.629-17.29a45.91 45.91 0 0 1 15.892-10.79c6.044-2.47 12.591-3.7 19.643-3.7 6.044 0 11.671.89 16.882 2.66 5.21 1.73 9.83 4.2 13.859 7.4 4.064 3.19 7.382 7 9.952 11.41 2.571 4.37 4.22 9.2 4.95 14.48h-22.926Zm40.863 72.22v-106.71h71.903v18.6h-49.342v25.43h45.643v18.6h-45.643v25.48h49.551v18.6h-72.112Zm179.092-106.71v106.71h-19.485l-46.424-67.16h-.782v67.16h-22.561v-106.71h19.8l46.06 67.11h.937v-67.11h22.455Zm18.64 106.71v-106.71h71.91v18.6h-49.35v25.43h45.65v18.6h-45.65v25.48h49.55v18.6h-72.11Zm89.84 0v-106.71h42.1c8.06 0 14.94 1.44 20.64 4.32 5.73 2.85 10.09 6.9 13.07 12.14 3.03 5.21 4.54 11.35 4.54 18.4 0 7.08-1.53 13.18-4.59 18.29-3.05 5.07-7.48 8.96-13.28 11.67-5.77 2.71-12.75 4.06-20.95 4.06h-28.19v-18.13h24.54c4.31 0 7.89-.59 10.74-1.77 2.84-1.18 4.96-2.96 6.35-5.32 1.43-2.36 2.14-5.29 2.14-8.8 0-3.55-.71-6.53-2.14-8.96-1.39-2.44-3.52-4.28-6.41-5.53-2.84-1.28-6.44-1.93-10.78-1.93h-15.22v88.27h-22.56Zm57.63-48.56 26.52 48.56h-24.9l-25.95-48.56h24.33Zm57.05 48.56h-24.17l36.83-106.71h29.08l36.78 106.71h-24.17l-26.73-82.33h-.83l-26.79 82.33Zm-1.51-41.95h57.11v17.62h-57.11v-17.62Zm92.88 41.95v-106.71h22.56v88.11h45.75v18.6h-68.31Zm-497.471 90.06v-18.6h87.639v18.6h-32.67v88.1h-22.3v-88.1h-32.669Zm107.425 88.1h-24.176l36.837-106.7h29.074l36.781 106.7h-24.172l-26.729-82.32h-.834l-26.781 82.32Zm-1.511-41.94h57.106v17.61h-57.106v-17.61Zm92.877 41.94v-106.7h42.72c7.85 0 14.4 1.16 19.65 3.49 5.24 2.32 9.18 5.55 11.82 9.69 2.64 4.1 3.96 8.82 3.96 14.17 0 4.17-.83 7.83-2.5 10.99-1.66 3.13-3.96 5.7-6.87 7.72-2.89 1.98-6.19 3.38-9.9 4.22v1.04c4.06.17 7.86 1.32 11.41 3.44 3.57 2.12 6.47 5.09 8.7 8.91 2.22 3.78 3.33 8.3 3.33 13.54 0 5.67-1.4 10.72-4.22 15.17-2.78 4.41-6.89 7.9-12.35 10.47-5.45 2.57-12.17 3.85-20.16 3.85h-45.59Zm22.56-18.44h18.39c6.29 0 10.87-1.2 13.76-3.6 2.88-2.43 4.32-5.66 4.32-9.69 0-2.95-.71-5.55-2.13-7.81-1.43-2.26-3.46-4.03-6.1-5.32-2.61-1.28-5.71-1.93-9.33-1.93h-18.91v28.35Zm0-43.61h16.72c3.1 0 5.84-.54 8.24-1.62 2.43-1.11 4.34-2.67 5.73-4.69 1.42-2.01 2.13-4.42 2.13-7.24 0-3.85-1.37-6.96-4.11-9.33-2.71-2.36-6.57-3.54-11.57-3.54h-17.14v26.42Zm74.44 62.05v-106.7h22.56v88.1h45.75v18.6h-68.31Zm83.25 0v-106.7h71.91v18.6h-49.35v25.42h45.65v18.6h-45.65v25.48h49.55v18.6h-72.11Z" class="General table"/>
      </g> -->
    </g>
    <g id="Sec-4" class="NZ">
      <path fill="#E6E8EC" stroke="#B1B5C4" stroke-width="10.48" d="M1545.81 4130.8H630.9c-31.835 0-57.642-25.8-57.642-57.64v-267.23c0-31.83 25.807-57.64 57.642-57.64h602.62c37.62 0 68.12-30.5 68.12-68.12V1867.08c0-37.62-30.5-68.12-68.12-68.12H630.9c-31.835 0-57.642-25.81-57.642-57.64V1211.3c0-45.47 50.955-74.74 91.117-52.74 273.812 150.03 1092.555 544.7 2172.255 572.28 1084.14 27.69 1886.34-266.38 2149.6-377.9 39.75-16.84 85.47 12.37 85.47 55.19v1315.23c0 31.83-25.81 57.64-57.64 57.64H4172.5c-37.62 0-68.12 30.5-68.12 68.12v1603.21c0 37.63 30.5 68.13 68.12 68.13h1279.36c31.84 0 57.64 25.8 57.64 57.64v1837.45c0 31.84-25.8 57.65-57.64 57.65H630.9c-31.835 0-57.642-25.81-57.642-57.65V5376.08c0-31.84 25.807-57.65 57.642-57.65h914.91c37.62 0 68.12-30.5 68.12-68.12V4198.93c0-37.63-30.5-68.13-68.12-68.13Z" class="GA-BG"/>
      <g id="identifier">
        <path fill="#B1B5C4" d="M2632.16 3574.85c-1.14-3.98-2.75-7.5-4.83-10.56a29.81 29.81 0 0 0-7.61-7.86c-2.95-2.18-6.33-3.85-10.15-5-3.77-1.14-7.95-1.72-12.53-1.72-8.57 0-16.1 2.13-22.6 6.39-6.44 4.26-11.46 10.45-15.07 18.59-3.6 8.08-5.4 17.96-5.4 29.64s1.77 21.61 5.32 29.8c3.55 8.19 8.57 14.44 15.07 18.75 6.49 4.26 14.16 6.39 23.01 6.39 8.02 0 14.87-1.42 20.55-4.26 5.73-2.89 10.1-6.96 13.1-12.2 3.05-5.24 4.58-11.44 4.58-18.59l7.21 1.07h-43.23v-26.69h70.17v21.12c0 14.74-3.12 27.4-9.34 37.99-6.22 10.54-14.79 18.67-25.71 24.4-10.91 5.68-23.41 8.52-37.5 8.52-15.72 0-29.53-3.47-41.43-10.4-11.9-6.99-21.18-16.9-27.84-29.72-6.6-12.89-9.9-28.17-9.9-45.86 0-13.59 1.96-25.71 5.89-36.35 3.99-10.7 9.55-19.76 16.7-27.18 7.16-7.43 15.48-13.08 24.98-16.95 9.5-3.88 19.78-5.81 30.87-5.81 9.49 0 18.34 1.39 26.52 4.17 8.19 2.73 15.45 6.61 21.78 11.63 6.39 5.02 11.6 11 15.64 17.93 4.04 6.88 6.63 14.46 7.78 22.76h-36.03Zm64.22 113.48v-167.68h112.99v29.23h-77.54v39.95h71.72v29.24h-71.72v40.03h77.87v29.23h-113.32Zm281.43-167.68v167.68h-30.62l-72.95-105.54h-1.23v105.54h-35.46v-167.68h31.12l72.38 105.46h1.47v-105.46h35.29Zm29.29 167.68v-167.68h112.99v29.23h-77.53v39.95h71.72v29.24h-71.72v40.03h77.86v29.23H3007.1Zm141.18 0v-167.68h66.16c12.66 0 23.47 2.26 32.42 6.79 9.01 4.48 15.86 10.84 20.55 19.08 4.75 8.19 7.13 17.82 7.13 28.9 0 11.14-2.41 20.72-7.21 28.74-4.8 7.97-11.76 14.09-20.88 18.34-9.06 4.26-20.03 6.39-32.91 6.39h-44.3v-28.49h38.57c6.76 0 12.39-.93 16.86-2.79 4.48-1.85 7.81-4.64 9.99-8.35 2.24-3.71 3.36-8.32 3.36-13.84 0-5.56-1.12-10.26-3.36-14.08-2.18-3.82-5.54-6.71-10.07-8.68-4.48-2.02-10.13-3.03-16.95-3.03h-23.91v138.7h-35.45Zm90.56-76.31 41.67 76.31h-39.13l-40.78-76.31h38.24Zm89.65 76.31h-37.99l57.89-167.68h45.69l57.8 167.68h-37.99l-42-129.36h-1.31l-42.09 129.36Zm-2.37-65.91h89.74v27.68h-89.74v-27.68Zm145.95 65.91v-167.68h35.45v138.45h71.89v29.23h-107.34Zm-1047.5 279h-37.99l57.89-167.68h45.69l57.8 167.68h-37.99l-42-129.36h-1.31l-42.09 129.36Zm-2.37-65.91h89.74v27.68h-89.74v-27.68Zm205.39 65.91h-59.44v-167.68h59.93c16.87 0 31.39 3.36 43.56 10.07 12.17 6.66 21.53 16.24 28.08 28.74 6.61 12.5 9.91 27.45 9.91 44.87 0 17.46-3.3 32.48-9.91 45.03-6.55 12.55-15.96 22.19-28.24 28.9-12.23 6.72-26.86 10.07-43.89 10.07Zm-23.99-30.37h22.52c10.48 0 19.29-1.86 26.44-5.57 7.21-3.77 12.61-9.58 16.21-17.44 3.66-7.92 5.49-18.12 5.49-30.62 0-12.39-1.83-22.52-5.49-30.38-3.6-7.86-8.98-13.65-16.13-17.36-7.15-3.71-15.96-5.57-26.44-5.57h-22.6v106.94Zm132.29-137.31h43.73l46.17 112.66h1.97l46.18-112.66h43.72v167.68h-34.39v-109.14h-1.39l-43.39 108.32h-23.42l-43.4-108.73h-1.39v109.55h-34.39v-167.68Zm246.43 0v167.68h-35.45v-167.68h35.45Zm120.14 48.22c-.66-6.6-3.47-11.73-8.43-15.39-4.97-3.66-11.71-5.48-20.23-5.48-5.78 0-10.67.81-14.65 2.45-3.99 1.58-7.05 3.8-9.17 6.63-2.08 2.84-3.12 6.06-3.12 9.67-.1 3 .52 5.62 1.89 7.86 1.42 2.23 3.35 4.17 5.81 5.81 2.46 1.58 5.3 2.97 8.52 4.17 3.22 1.15 6.66 2.13 10.31 2.95l15.07 3.6c7.31 1.64 14.03 3.83 20.14 6.55 6.11 2.73 11.41 6.09 15.88 10.08 4.48 3.98 7.95 8.68 10.4 14.08 2.51 5.4 3.8 11.6 3.85 18.59-.05 10.26-2.67 19.15-7.86 26.69-5.13 7.48-12.55 13.29-22.27 17.44-9.66 4.09-21.32 6.14-34.96 6.14-13.54 0-25.33-2.08-35.37-6.22-9.99-4.15-17.8-10.29-23.42-18.43-5.57-8.18-8.49-18.31-8.76-30.37h34.31c.38 5.62 1.99 10.31 4.83 14.08 2.89 3.71 6.74 6.52 11.54 8.43 4.86 1.86 10.35 2.79 16.46 2.79 6 0 11.22-.88 15.64-2.62 4.47-1.75 7.94-4.18 10.4-7.29 2.45-3.11 3.68-6.69 3.68-10.73 0-3.76-1.12-6.93-3.36-9.49-2.18-2.57-5.4-4.75-9.66-6.55-4.2-1.81-9.36-3.44-15.47-4.92l-18.26-4.58c-14.14-3.44-25.3-8.82-33.49-16.13-8.19-7.32-12.25-17.17-12.2-29.56-.05-10.15 2.65-19.02 8.11-26.61 5.51-7.59 13.07-13.51 22.68-17.77 9.6-4.26 20.52-6.38 32.75-6.38 12.44 0 23.31 2.12 32.59 6.38 9.33 4.26 16.59 10.18 21.77 17.77 5.19 7.59 7.86 16.37 8.03 26.36h-33.98Zm151.08 0c-.65-6.6-3.46-11.73-8.43-15.39s-11.71-5.48-20.22-5.48c-5.79 0-10.67.81-14.66 2.45-3.98 1.58-7.04 3.8-9.17 6.63-2.07 2.84-3.11 6.06-3.11 9.67-.11 3 .52 5.62 1.88 7.86 1.42 2.23 3.36 4.17 5.82 5.81 2.45 1.58 5.29 2.97 8.51 4.17 3.22 1.15 6.66 2.13 10.32 2.95l15.06 3.6c7.32 1.64 14.03 3.83 20.15 6.55 6.11 2.73 11.4 6.09 15.88 10.08 4.48 3.98 7.94 8.68 10.4 14.08 2.51 5.4 3.79 11.6 3.85 18.59-.06 10.26-2.68 19.15-7.86 26.69-5.14 7.48-12.56 13.29-22.27 17.44-9.67 4.09-21.32 6.14-34.97 6.14-13.53 0-25.32-2.08-35.37-6.22-9.99-4.15-17.79-10.29-23.41-18.43-5.57-8.18-8.49-18.31-8.77-30.37h34.31c.38 5.62 1.99 10.31 4.83 14.08 2.89 3.71 6.74 6.52 11.55 8.43 4.85 1.86 10.34 2.79 16.45 2.79 6.01 0 11.22-.88 15.64-2.62 4.48-1.75 7.94-4.18 10.4-7.29 2.46-3.11 3.69-6.69 3.69-10.73 0-3.76-1.12-6.93-3.36-9.49-2.18-2.57-5.41-4.75-9.66-6.55-4.21-1.81-9.36-3.44-15.48-4.92l-18.26-4.58c-14.13-3.44-25.3-8.82-33.48-16.13-8.19-7.32-12.26-17.17-12.2-29.56-.06-10.15 2.64-19.02 8.1-26.61 5.51-7.59 13.07-13.51 22.68-17.77s20.53-6.38 32.75-6.38c12.45 0 23.31 2.12 32.59 6.38 9.33 4.26 16.59 10.18 21.78 17.77 5.19 7.59 7.86 16.37 8.02 26.36h-33.98Zm95.58-48.22v167.68h-35.46v-167.68h35.46Zm183.26 83.84c0 18.29-3.47 33.84-10.4 46.67-6.88 12.83-16.27 22.63-28.17 29.4-11.84 6.71-25.16 10.07-39.95 10.07-14.9 0-28.28-3.39-40.12-10.16-11.85-6.77-21.21-16.56-28.09-29.39-6.87-12.83-10.31-28.36-10.31-46.59 0-18.29 3.44-33.84 10.31-46.67 6.88-12.83 16.24-22.6 28.09-29.31 11.84-6.77 25.22-10.15 40.12-10.15 14.79 0 28.11 3.38 39.95 10.15 11.9 6.71 21.29 16.48 28.17 29.31 6.93 12.83 10.4 28.38 10.4 46.67Zm-35.95 0c0-11.84-1.77-21.83-5.32-29.97-3.49-8.13-8.43-14.3-14.82-18.5-6.38-4.2-13.86-6.31-22.43-6.31s-16.05 2.11-22.44 6.31c-6.38 4.2-11.35 10.37-14.9 18.5-3.49 8.14-5.24 18.13-5.24 29.97 0 11.85 1.75 21.83 5.24 29.97 3.55 8.13 8.52 14.3 14.9 18.5 6.39 4.21 13.87 6.31 22.44 6.31 8.57 0 16.05-2.1 22.43-6.31 6.39-4.2 11.33-10.37 14.82-18.5 3.55-8.14 5.32-18.12 5.32-29.97Zm202.47-83.84v167.68h-30.62l-72.96-105.54h-1.23v105.54h-35.45v-167.68h31.11l72.38 105.46h1.48v-105.46h35.29Z" class="General admission"/>
      </g>
    </g>
    <!-- <g class="Stage Text">
      <path fill="#777E91" d="M2659.18 1056.95c-15.07 0-28.56-2.44-40.5-7.33-11.93-4.9-21.52-12.13-28.76-21.72-7.04-9.59-10.76-21.13-11.15-34.627h53.41c.78 7.627 3.42 13.497 7.92 17.607 4.5 3.91 10.37 5.87 17.61 5.87 7.44 0 13.3-1.66 17.61-4.99 4.3-3.52 6.45-8.31 6.45-14.379 0-5.086-1.76-9.293-5.28-12.618-3.32-3.326-7.53-6.065-12.62-8.217-4.89-2.152-11.93-4.597-21.12-7.336-13.31-4.108-24.17-8.217-32.58-12.325-8.41-4.108-15.65-10.173-21.71-18.194-6.07-8.021-9.1-18.487-9.1-31.399 0-19.172 6.95-34.138 20.84-44.898 13.89-10.955 31.98-16.433 54.28-16.433 22.7 0 40.99 5.478 54.88 16.433 13.89 10.76 21.32 25.824 22.3 45.191h-54.29c-.39-6.651-2.83-11.835-7.33-15.552-4.5-3.913-10.27-5.869-17.32-5.869-6.06 0-10.95 1.662-14.67 4.988-3.72 3.13-5.58 7.728-5.58 13.792 0 6.652 3.13 11.836 9.4 15.553 6.26 3.717 16.04 7.728 29.34 12.032 13.3 4.499 24.06 8.803 32.28 12.911 8.41 4.109 15.65 10.076 21.71 17.901 6.07 7.825 9.1 17.9 9.1 30.225 0 11.734-3.03 22.404-9.1 31.984-5.86 9.59-14.47 17.22-25.82 22.89-11.35 5.67-24.75 8.51-40.2 8.51Zm254.19-208.055v40.203h-54.58V1054.9h-50.18V889.098h-54.58v-40.203h159.34Zm153.43 169.615h-76.89l-12.32 36.39h-52.53l74.54-206.005h58.1l74.54 206.005h-53.12l-12.32-36.39Zm-12.92-38.736-25.53-75.417-25.23 75.417h50.76Zm237.79-65.733c-3.72-6.847-9.1-12.031-16.14-15.553-6.85-3.717-14.97-5.575-24.36-5.575-16.24 0-29.24 5.38-39.03 16.14-9.78 10.564-14.67 24.747-14.67 42.55 0 18.976 5.09 33.844 15.26 44.604 10.37 10.563 24.55 15.843 42.55 15.843 12.33 0 22.69-3.13 31.11-9.39 8.6-6.257 14.86-15.256 18.78-26.994h-63.68v-36.975h109.16v46.659c-3.72 12.52-10.07 24.16-19.07 34.92-8.81 10.76-20.05 19.47-33.75 26.12-13.69 6.65-29.15 9.97-46.36 9.97-20.35 0-38.54-4.4-54.59-13.2-15.84-9-28.26-21.42-37.26-37.27-8.81-15.845-13.21-33.941-13.21-54.287 0-20.346 4.4-38.442 13.21-54.288 9-16.042 21.42-28.465 37.26-37.268 15.85-9 33.95-13.499 54.29-13.499 24.65 0 45.39 5.967 62.21 17.9 17.02 11.934 28.27 28.465 33.75 49.593h-55.46Zm136.96-24.943v41.67h67.2v38.735h-67.2v45.187h76v40.21h-126.18V848.895h126.18v40.203h-76Z" class="Stage"/>
    </g> -->
    <!-- <path fill="#B1B5C4" d="M570.76 861.745a5.24 5.24 0 1 0-5.485 8.93l5.485-8.93Zm-2.742 4.465c-2.743 4.465-2.738 4.468-2.729 4.474l.038.023.142.087.559.34c.493.299 1.228.744 2.203 1.329 1.95 1.169 4.86 2.9 8.713 5.155 7.706 4.51 19.188 11.115 34.32 19.517 30.263 16.804 75.127 40.794 133.588 69.573 116.92 57.562 288.238 134.282 505.918 210.992 435.37 153.43 1056.27 306.85 1798.47 306.85v-10.48c-740.77 0-1360.48-153.13-1794.98-306.25-217.25-76.56-388.185-153.12-504.78-210.514-58.296-28.699-103.007-52.608-133.129-69.333-15.06-8.363-26.473-14.929-34.114-19.4a955.56 955.56 0 0 1-8.615-5.098c-.959-.575-1.678-1.01-2.156-1.3l-.535-.326-.131-.08a.706.706 0 0 0-.031-.019c-.007-.004-.009-.005-2.751 4.46Zm2481.222 618.34c742.2 0 1363.1-153.42 1798.47-306.85 217.68-76.71 389-153.43 505.92-210.992 58.46-28.779 103.32-52.769 133.59-69.573 15.13-8.402 26.61-15.007 34.32-19.517a1003.2 1003.2 0 0 0 8.71-5.155c.97-.585 1.71-1.03 2.2-1.329.25-.15.44-.263.56-.34.06-.038.11-.067.14-.087.02-.01.03-.018.04-.023.01-.006.02-.009-2.73-4.474-2.74-4.465-2.74-4.464-2.75-4.46 0 .004-.02.01-.03.019l-.13.08-.54.326c-.47.29-1.19.725-2.15 1.3-1.92 1.15-4.8 2.862-8.62 5.098-7.64 4.471-19.05 11.037-34.11 19.4-30.12 16.725-74.83 40.634-133.13 69.333-116.59 57.394-287.53 133.954-504.78 210.514-434.5 153.12-1054.21 306.25-1794.98 306.25v10.48Z" class="stage-line"/> -->
  <!-- </g> -->
</svg>
